{"title":"Tanu Weds Manu 2011 - Xvid - 1/3DvDRip - 06ch - AC3 -Hindi - E-S","uid":6290910,"size":1574854108,"categoryP":"video","categoryS":"movies","magnet":"?xt=urn:btih:1ddaba414a895b3414b374a7b4f34519bcd31c17&amp;dn=Tanu+Weds+Manu+2011+-+Xvid+-+1%2F3DvDRip+-+06ch+-+AC3+-Hindi+-+E-S&amp;tr=udp%3A%2F%2Ftracker.openbittorrent.com%3A80&amp;tr=udp%3A%2F%2Fopen.demonii.com%3A1337&amp;tr=udp%3A%2F%2Ftracker.coppersurfer.tk%3A6969&amp;tr=udp%3A%2F%2Fexodus.desync.com%3A6969","seeders":0,"leechers":1,"uploader":"cashearn143","files":3,"time":1301808622,"description":"[CENTER][B][FONT=Arial][SIZE=5][COLOR=Red]Tanu Weds Manu (2011) - Xvid -  1/3DvDRip - 06ch -AC3 - E-Subs xRG[/COLOR][/SIZE][/FONT][/B]\n\n[URL=&quot;http://img607.imageshack.us/i/vlcsnap2011033119h12m33.png/&quot;][IMG]http://img607.imageshack.us/img607/6540/vlcsnap2011033119h12m33.png[/IMG][/URL] \n\n\n\n[URL=&quot;http://img809.imageshack.us/i/vlcsnap2011033119h20m09.png/&quot;][IMG]http://img809.imageshack.us/img809/2687/vlcsnap2011033119h20m09.png[/IMG][/URL]\n [URL=&quot;http://img828.imageshack.us/i/vlcsnap2011033119h21m30.png/&quot;][IMG]http://img828.imageshack.us/img828/205/vlcsnap2011033119h21m30.png[/IMG][/URL]\n [URL=&quot;http://img171.imageshack.us/i/vlcsnap2011033119h23m58.png/&quot;][IMG]http://img171.imageshack.us/img171/7200/vlcsnap2011033119h23m58.png[/IMG][/URL]\n [URL=&quot;http://img834.imageshack.us/i/vlcsnap2011033119h24m48.png/&quot;][IMG]http://img834.imageshack.us/img834/6817/vlcsnap2011033119h24m48.png[/IMG][/URL]\n [URL=&quot;http://img807.imageshack.us/i/vlcsnap2011033119h24m57.png/&quot;][IMG]http://img807.imageshack.us/img807/2465/vlcsnap2011033119h24m57.png[/IMG][/URL]\n [URL=&quot;http://img862.imageshack.us/i/vlcsnap2011033119h25m13.png/&quot;][IMG]http://img862.imageshack.us/img862/620/vlcsnap2011033119h25m13.png[/IMG][/URL]\n [URL=&quot;http://img28.imageshack.us/i/vlcsnap2011033119h25m27.png/&quot;][IMG]http://img28.imageshack.us/img28/7518/vlcsnap2011033119h25m27.png[/IMG][/URL]\n [URL=&quot;http://img62.imageshack.us/i/vlcsnap2011033119h25m43.png/&quot;][IMG]http://img62.imageshack.us/img62/7519/vlcsnap2011033119h25m43.png[/IMG][/URL]\n [URL=&quot;http://img231.imageshack.us/i/vlcsnap2011033119h26m19.png/&quot;][IMG]http://img231.imageshack.us/img231/4870/vlcsnap2011033119h26m19.png[/IMG][/URL]\n [URL=&quot;http://img822.imageshack.us/i/vlcsnap2011033119h27m25.png/&quot;][IMG]http://img822.imageshack.us/img822/8145/vlcsnap2011033119h27m25.png[/IMG][/URL]\n [URL=&quot;http://img199.imageshack.us/i/vlcsnap2011033119h28m10.png/&quot;][IMG]http://img199.imageshack.us/img199/6248/vlcsnap2011033119h28m10.png[/IMG][/URL]\n [URL=&quot;http://img860.imageshack.us/i/vlcsnap2011033119h28m43.png/&quot;][IMG]http://img860.imageshack.us/img860/6508/vlcsnap2011033119h28m43.png[/IMG][/URL]\n\n\n[B][SIZE=5][COLOR=Red]\n\nInfo[/COLOR][/SIZE][COLOR=Red] [/COLOR][/B]\n\n[code]Complete name                    : Tanu Weds Manu (2011) - Xvid -  1-3DvDRip - 06ch -AC3 - E-Subs[~TDT~].avi\nIMDB                             : www.imdb.com/title/tt1694542/\nFormat                           : AVI\nFormat/Info                      : Audio Video Interleave\nFile size                        : 1.46 GiB\nDuration                         : 1h 59mn\nOverall bit rate                 : 1 748 Kbps\nWriting application              : VirtualDubMod 1.5.10.3 | www.virtualdub-fr.org || (build 2550/release)\nWriting library                  : VirtualDubMod build 2550/release\nSource                           : Dvd9 \n[/code]\n\n[code]Quote\nVideo\nID                               : 0\nFormat                           : MPEG-4 Visual\nFormat profile                   : Advanced Simple@L5\nFormat settings, BVOP            : 1\nFormat settings, QPel            : No\nFormat settings, GMC             : No warppoints\nFormat settings, Matrix          : Default (H.263)\nMuxing mode                      : Packed bitstream\nCodec ID                         : XVID\nCodec ID/Hint                    : XviD\nDuration                         : 1h 59mn\nBit rate                         : 1 291 Kbps\nWidth                            : 720 pixels\nHeight                           : 304 pixels\nDisplay aspect ratio             : 2.35:1\nFrame rate                       : 23.976 fps\nColor space                      : YUV\nChroma subsampling               : 4:2:0\nBit depth                        : 8 bits\nScan type                        : Progressive\nCompression mode                 : Lossy\nBits/(Pixel*Frame)               : 0.246\nStream size                      : 1.08 GiB (74%)\nWriting library                  : XviD 1.2.1 (UTC 2008-12-04)\n\nAudio\nID                               : 1\nFormat                           : AC-3\nFormat/Info                      : Audio Coding 3\nMode extension                   : CM (complete main)\nCodec ID                         : 2000\nDuration                         : 1h 59mn\nBit rate mode                    : Constant\nBit rate                         : 448 Kbps\nChannel(s)                       : 6 channels\nChannel positions                : Front: L C R, Side: L R, LFE\nSampling rate                    : 48.0 KHz\nBit depth                        : 16 bits\nCompression mode                 : Lossy\nStream size                      : 382 MiB (26%)\nAlignment                        : Split accross interleaves\nInterleave, duration             : 42 ms (1.00 video frame)\nInterleave, preload duration     : 500 ms\n\n[/code][/CENTER]","torrent":{"xt":"urn:btih:1ddaba414a895b3414b374a7b4f34519bcd31c17","amp;dn":"Tanu+Weds+Manu+2011+-+Xvid+-+1%2F3DvDRip+-+06ch+-+AC3+-Hindi+-+E-S","amp;tr":["udp%3A%2F%2Ftracker.openbittorrent.com%3A80","udp%3A%2F%2Fopen.demonii.com%3A1337","udp%3A%2F%2Ftracker.coppersurfer.tk%3A6969","udp%3A%2F%2Fexodus.desync.com%3A6969"],"infoHash":"1ddaba414a895b3414b374a7b4f34519bcd31c17","infoHashBuffer":{"type":"Buffer","data":[29,218,186,65,74,137,91,52,20,179,116,167,180,243,69,25,188,211,28,23]},"announce":[],"urlList":[]}}